<svg xmlns="http://www.w3.org/2000/svg" width="74.859" height="76.369" viewBox="0 0 74.859 76.369"><defs><style>.a{fill:#f3cd20;}.b{fill:#d8b61e;}.c{fill:#a4afc1;}</style></defs><g transform="translate(31.661 32.486)"><circle class="a" cx="6.171" cy="6.171" r="6.171"/></g><g transform="translate(6.977 32.486)"><circle class="a" cx="6.171" cy="6.171" r="6.171"/></g><g transform="translate(56.345 32.486)"><circle class="a" cx="6.171" cy="6.171" r="6.171"/></g><g transform="translate(31.661 32.486)"><path class="b" d="M21.921,21.921a6.143,6.143,0,0,1,3.086-5.315,6.171,6.171,0,1,0,0,10.631A6.143,6.143,0,0,1,21.921,21.921Z" transform="translate(-15.75 -15.75)"/></g><g transform="translate(6.977 32.486)"><path class="b" d="M12.921,21.921a6.143,6.143,0,0,1,3.086-5.315,6.171,6.171,0,1,0,0,10.631A6.143,6.143,0,0,1,12.921,21.921Z" transform="translate(-6.75 -15.75)"/></g><g transform="translate(56.345 32.486)"><path class="b" d="M30.921,21.921a6.143,6.143,0,0,1,3.086-5.315,6.171,6.171,0,1,0,0,10.631A6.143,6.143,0,0,1,30.921,21.921Z" transform="translate(-24.75 -15.75)"/></g><g transform="translate(0 0)"><g transform="translate(0.487)"><path class="c" d="M0,0H2.743V5.485H0Z" transform="translate(0 1.939) rotate(-45)"/></g><g transform="translate(11.639 11.147)"><path class="c" d="M0,0H2.743V5.485H0Z" transform="translate(0 1.939) rotate(-45)"/></g><g transform="translate(0 11.154)"><path class="c" d="M0,0H5.485V2.743H0Z" transform="translate(0 3.878) rotate(-45)"/></g><g transform="translate(11.152 0.002)"><path class="c" d="M0,0H5.488V2.743H0Z" transform="translate(0 3.88) rotate(-45)"/></g></g><g transform="translate(66.631 68.141)"><path class="c" d="M32.614,36.978a4.114,4.114,0,1,1,4.114-4.114A4.119,4.119,0,0,1,32.614,36.978Zm0-5.485a1.371,1.371,0,1,0,1.371,1.371A1.374,1.374,0,0,0,32.614,31.493Z" transform="translate(-28.5 -28.75)"/></g></svg>