<svg xmlns="http://www.w3.org/2000/svg" xmlns:xlink="http://www.w3.org/1999/xlink" width="425.134" height="286.549" viewBox="0 0 425.134 286.549"><defs><style>.a{opacity:0.56;}.b{fill:#d8d6ed;}.c{fill:#e7fff9;}.d,.l{fill:none;stroke:#707070;}.as,.bb,.d,.l,.p{stroke-miterlimit:10;}.ab,.e,.n,.z{opacity:0.5;}.ab,.ac,.ah,.e,.n,.z{mix-blend-mode:multiply;}.aa,.ab,.ac,.ah,.aq,.e,.f,.n,.t,.z{isolation:isolate;}.e{fill:url(#a);}.g{fill:url(#b);}.h{fill:url(#d);}.i{fill:url(#e);}.j{fill:#fff;}.k{fill:url(#f);}.l{stroke-width:3px;}.m{fill:url(#g);}.n{fill:url(#h);}.o,.p{fill:url(#i);}.as,.bb,.p{stroke:#fff;stroke-width:0.5px;}.q{fill:url(#k);}.r{fill:url(#l);}.s{fill:url(#m);}.aa,.aq,.t{mix-blend-mode:overlay;}.t{fill:url(#n);}.u{fill:url(#o);}.v{fill:url(#p);}.w{fill:url(#q);}.x{fill:url(#r);}.y{fill:url(#y);}.z{fill:url(#aa);}.aa{opacity:0.42;}.ab,.ac{fill:url(#af);}.ac{opacity:0.4;}.ad{fill:url(#av);}.ae{fill:url(#aw);}.af{fill:url(#ax);}.ag{fill:url(#bh);}.ah{fill:#94a3c0;opacity:0.32;}.ai{fill:#ff7c40;}.aj{fill:#ff4237;}.ak{fill:url(#bn);}.al{fill:#265497;}.am{fill:url(#bo);}.an{fill:url(#bq);}.ao{fill:url(#bt);}.ap{fill:url(#bu);}.aq{opacity:0.79;}.ar{fill:url(#bv);}.as{fill:url(#bw);}.at{fill:url(#by);}.au{fill:url(#ca);}.av{fill:url(#cb);}.aw{fill:url(#cc);}.ax{fill:url(#cd);}.ay{fill:#333379;}.az{fill:#374fa1;}.ba,.bb{fill:url(#ci);}.bc{fill:url(#cl);}</style><linearGradient id="a" x1="0.789" y1="0.616" x2="0.21" y2="0.087" gradientUnits="objectBoundingBox"><stop offset="0" stop-color="#a3aeeb"/><stop offset="0.1" stop-color="#a4b0eb" stop-opacity="0.976"/><stop offset="0.231" stop-color="#aab5ec" stop-opacity="0.906"/><stop offset="0.379" stop-color="#b3bfed" stop-opacity="0.788"/><stop offset="0.541" stop-color="#c0ccef" stop-opacity="0.627"/><stop offset="0.714" stop-color="#d1ddf1" stop-opacity="0.416"/><stop offset="0.892" stop-color="#e4f1f4" stop-opacity="0.169"/><stop offset="1" stop-color="#f2fff7" stop-opacity="0"/></linearGradient><linearGradient id="b" x1="1.153" y1="0.991" x2="-0.173" y2="-0.575" gradientUnits="objectBoundingBox"><stop offset="0" stop-color="#a3aeeb"/><stop offset="0.154" stop-color="#b0bced"/><stop offset="0.719" stop-color="#dfecf4"/><stop offset="1" stop-color="#f2fff7"/></linearGradient><linearGradient id="d" x1="0.819" y1="0.759" x2="0.234" y2="0.284" gradientUnits="objectBoundingBox"><stop offset="0" stop-color="#f2fff7"/><stop offset="1" stop-color="#fff"/></linearGradient><linearGradient id="e" x1="0.453" y1="1.273" x2="0.495" y2="0.092" xlink:href="#b"/><linearGradient id="f" x1="0.151" y1="2.307" x2="0.793" y2="-1.135" gradientUnits="objectBoundingBox"><stop offset="0" stop-color="#2970ff"/><stop offset="0.129" stop-color="#2678ff"/><stop offset="0.338" stop-color="#1f90ff"/><stop offset="0.599" stop-color="#14b6ff"/><stop offset="0.901" stop-color="#05ebff"/><stop offset="1" stop-color="aqua"/></linearGradient><linearGradient id="g" x1="0.5" y1="1" x2="0.5" gradientUnits="objectBoundingBox"><stop offset="0" stop-color="#ff6b1f"/><stop offset="0.195" stop-color="#ff8127"/><stop offset="0.531" stop-color="#ffa233"/><stop offset="0.812" stop-color="#ffb63a"/><stop offset="1" stop-color="#ffbe3d"/></linearGradient><linearGradient id="h" x1="0.511" y1="1.488" x2="0.487" y2="-0.682" xlink:href="#b"/><linearGradient id="i" x1="1.165" y1="0.936" x2="-0.184" y2="-0.441" xlink:href="#b"/><linearGradient id="k" x1="0.819" y1="0.759" x2="0.234" y2="0.284" xlink:href="#d"/><linearGradient id="l" x1="0.891" y1="2.005" x2="-0.052" y2="-1.623" xlink:href="#f"/><linearGradient id="m" x1="0.5" y1="1.087" x2="0.5" y2="0.152" gradientUnits="objectBoundingBox"><stop offset="0" stop-color="#2970ff"/><stop offset="0.085" stop-color="#2774ff" stop-opacity="0.965"/><stop offset="0.222" stop-color="#2382ff" stop-opacity="0.875"/><stop offset="0.394" stop-color="#1d97ff" stop-opacity="0.722"/><stop offset="0.594" stop-color="#14b6ff" stop-opacity="0.51"/><stop offset="0.814" stop-color="#0adbff" stop-opacity="0.243"/><stop offset="1" stop-color="aqua" stop-opacity="0"/></linearGradient><linearGradient id="n" x1="0.5" y1="1.087" x2="0.5" y2="0.152" gradientUnits="objectBoundingBox"><stop offset="0" stop-color="#2970ff"/><stop offset="0.085" stop-color="#3074ff" stop-opacity="0.965"/><stop offset="0.222" stop-color="#4482ff" stop-opacity="0.875"/><stop offset="0.394" stop-color="#6497ff" stop-opacity="0.722"/><stop offset="0.594" stop-color="#91b6ff" stop-opacity="0.51"/><stop offset="0.814" stop-color="#cadbff" stop-opacity="0.243"/><stop offset="1" stop-color="#fff" stop-opacity="0"/></linearGradient><linearGradient id="o" x1="-0.333" y1="-1.289" x2="1.285" y2="2.186" xlink:href="#b"/><linearGradient id="p" x1="0.552" y1="1.169" x2="0.33" y2="-1.687" xlink:href="#b"/><linearGradient id="q" x1="1" y1="0.5" x2="0" y2="0.5" xlink:href="#d"/><linearGradient id="r" x1="-0.333" y1="-1.289" x2="1.285" y2="2.186" xlink:href="#b"/><linearGradient id="y" x1="0.552" y1="1.169" x2="0.33" y2="-1.687" xlink:href="#b"/><linearGradient id="aa" x1="0.633" y1="0.663" x2="0.147" y2="0.064" xlink:href="#a"/><linearGradient id="af" x1="0.633" y1="0.663" x2="0.147" y2="0.064" xlink:href="#a"/><linearGradient id="av" x1="-0.333" y1="-1.289" x2="1.285" y2="2.186" xlink:href="#f"/><linearGradient id="aw" x1="0.552" y1="1.169" x2="0.33" y2="-1.687" xlink:href="#f"/><linearGradient id="ax" x1="0.805" y1="6.99" x2="0.457" y2="-0.412" xlink:href="#f"/><linearGradient id="bh" x1="-0.333" y1="-1.289" x2="1.285" y2="2.186" xlink:href="#f"/><linearGradient id="bn" x1="1" y1="0.5" x2="0" y2="0.5" xlink:href="#g"/><linearGradient id="bo" x1="0.391" y1="-0.247" x2="0.605" y2="1.057" xlink:href="#f"/><linearGradient id="bq" x1="1.153" y1="0.991" x2="-0.173" y2="-0.575" xlink:href="#b"/><linearGradient id="bt" x1="0.471" y1="1.156" x2="0.514" y2="-0.025" xlink:href="#b"/><linearGradient id="bu" x1="0.168" y1="2.186" x2="0.809" y2="-1.256" xlink:href="#f"/><linearGradient id="bv" x1="1" y1="0.5" x2="0" y2="0.5" gradientUnits="objectBoundingBox"><stop offset="0" stop-color="#a3aeeb"/><stop offset="0.197" stop-color="#a3aeeb" stop-opacity="0.988"/><stop offset="0.334" stop-color="#a7b2eb" stop-opacity="0.949"/><stop offset="0.454" stop-color="#acb7ec" stop-opacity="0.882"/><stop offset="0.563" stop-color="#b3bfed" stop-opacity="0.788"/><stop offset="0.666" stop-color="#bdc8ee" stop-opacity="0.671"/><stop offset="0.763" stop-color="#c8d4f0" stop-opacity="0.522"/><stop offset="0.856" stop-color="#d6e3f2" stop-opacity="0.345"/><stop offset="0.944" stop-color="#e6f3f5" stop-opacity="0.145"/><stop offset="1" stop-color="#f2fff7" stop-opacity="0"/></linearGradient><linearGradient id="bw" x1="1" y1="0.5" x2="0" y2="0.5" xlink:href="#b"/><linearGradient id="by" x1="1" y1="0.5" x2="0" y2="0.5" xlink:href="#f"/><linearGradient id="ca" x1="0.5" y1="1.013" x2="0.5" y2="0.016" gradientUnits="objectBoundingBox"><stop offset="0" stop-color="#2970ff"/><stop offset="0.122" stop-color="#1f90ff" stop-opacity="0.769"/><stop offset="0.246" stop-color="#17adff" stop-opacity="0.569"/><stop offset="0.372" stop-color="#10c6ff" stop-opacity="0.396"/><stop offset="0.497" stop-color="#0adaff" stop-opacity="0.251"/><stop offset="0.623" stop-color="#05eaff" stop-opacity="0.141"/><stop offset="0.749" stop-color="#02f6ff" stop-opacity="0.063"/><stop offset="0.874" stop-color="#00fcff" stop-opacity="0.016"/><stop offset="1" stop-color="aqua" stop-opacity="0"/></linearGradient><linearGradient id="cb" x1="0.339" y1="1.113" x2="0.616" y2="-0.169" xlink:href="#f"/><linearGradient id="cc" x1="0.5" y1="1.056" x2="0.5" y2="-0.082" gradientUnits="objectBoundingBox"><stop offset="0" stop-color="#ff8654"/><stop offset="0.069" stop-color="#ff914f"/><stop offset="0.224" stop-color="#ffa547"/><stop offset="0.403" stop-color="#ffb341"/><stop offset="0.621" stop-color="#ffbb3e"/><stop offset="1" stop-color="#ffbe3d"/></linearGradient><linearGradient id="cd" x1="1" y1="0.5" x2="0" y2="0.5" xlink:href="#g"/><linearGradient id="ci" x1="1.165" y1="0.936" x2="-0.184" y2="-0.441" xlink:href="#b"/><linearGradient id="cl" x1="1.165" y1="0.936" x2="-0.184" y2="-0.441" xlink:href="#b"/></defs><g transform="translate(0.25)"><g transform="translate(25.115 41.364)"><g class="a" transform="translate(0)"><g transform="translate(175.732 94.03)"><path class="b" d="M513.835,320.854l-51.718,29.859,1.208.7,52.933-30.561-44.33-25.762-1.216.7Z" transform="translate(-462.117 -295.092)"/></g><g transform="translate(163.37)"><path class="b" d="M470.869,322.611l-18.542-10.775,81.53-47.071L472.8,229.283l-1.216.7,32.85,19.09,1.019-.588,1.208.7-1.019.588,25.789,14.987L449.9,311.836l19.75,11.477Z" transform="translate(-449.904 -229.283)"/></g><g transform="translate(133.235 12.647)"><path class="b" d="M468.936,238.836,517.9,267.292l36.91-21.31,1.019-.588-1.208-.7-1.019.588L517.91,265.888l-47.758-27.754Z" transform="translate(-468.936 -238.134)"/></g><g transform="translate(227.768 159.371)"><path class="b" d="M384.69,351.244l.609.354,26.594,15.455,43-24.826,41.316,24.01,1.216-.7L454.9,340.823l-43,24.826L386.515,350.9l-.609-.354Z" transform="translate(-384.69 -340.823)"/></g><g transform="translate(176.865 132.091)"><path class="b" d="M477.886,322.432l41.305,24-72.209,41.69,68.313,39.7,1.216-.7-67.1-39,49.089-28.341-.609-.354,1.216-.7.609.354,21.9-12.647L479.1,321.73Z" transform="translate(-446.982 -321.73)"/></g><g transform="translate(204.689 59.486)"><path class="b" d="M357.04,315.419l1.208.7,45.639-26.35,48.356,28.1,80.117-46.256-1.208-.7-78.9,45.554-48.356-28.1Z" transform="translate(-357.04 -270.916)"/></g><g transform="translate(31.05 123.661)"><path class="b" d="M595.433,316.532,618.2,329.761l-43,24.826,29.826,17.333-48.881,28.221,1.208.7,50.1-28.923-29.826-17.333,43-24.826L596.649,315.83Z" transform="translate(-556.142 -315.83)"/></g><g transform="translate(0 93.214)"><path class="b" d="M493.143,322.388l37.682,21.9L600.6,304l31.436,18.269,45.431-26.23,1.216-.7-1.011-.816-1.413.816-44.215,25.528L600.611,302.6l-69.778,40.287-36.474-21.2Z" transform="translate(-493.143 -294.521)"/></g><g transform="translate(327.715 85.715)"><path class="b" d="M356.123,289.981l25.19,14.639L347.24,324.292l65.081,37.821,1.216-.7-63.873-37.119,34.084-19.678-26.4-15.341Z" transform="translate(-347.24 -289.273)"/></g></g><g transform="translate(241.65 235.537)"><g transform="translate(0)"><path class="b" d="M446.845,395.21c-2.493,1.439-2.506,3.774-.029,5.214a9.92,9.92,0,0,0,9,0c2.495-1.44,2.508-3.773.03-5.214A9.914,9.914,0,0,0,446.845,395.21Z" transform="translate(-444.966 -394.13)"/></g><g transform="translate(3.657 2.119)"><path class="c" d="M448.326,396.073a1.171,1.171,0,0,0-.011,2.216,4.211,4.211,0,0,0,3.826,0,1.171,1.171,0,0,0,.013-2.216A4.214,4.214,0,0,0,448.326,396.073Z" transform="translate(-447.527 -395.613)"/></g></g><g transform="translate(326.316 117.039)"><g transform="translate(0)"><path class="b" d="M387.589,312.275c-2.492,1.44-2.506,3.775-.029,5.214a9.914,9.914,0,0,0,9,0c2.493-1.439,2.508-3.773.03-5.214A9.926,9.926,0,0,0,387.589,312.275Z" transform="translate(-385.711 -311.196)"/></g><g transform="translate(3.658 2.119)"><path class="c" d="M389.07,313.138a1.172,1.172,0,0,0-.011,2.218,4.22,4.22,0,0,0,3.826,0,1.172,1.172,0,0,0,.013-2.218A4.222,4.222,0,0,0,389.07,313.138Z" transform="translate(-388.271 -312.679)"/></g></g><g transform="translate(387.041 155.617)"><g transform="translate(0)"><path class="b" d="M345.089,339.275c-2.492,1.44-2.506,3.775-.029,5.214a9.914,9.914,0,0,0,9,0c2.493-1.439,2.508-3.773.03-5.214A9.926,9.926,0,0,0,345.089,339.275Z" transform="translate(-343.211 -338.196)"/></g><g transform="translate(3.658 2.119)"><path class="c" d="M346.57,340.138a1.172,1.172,0,0,0-.011,2.218,4.22,4.22,0,0,0,3.826,0,1.172,1.172,0,0,0,.013-2.218A4.222,4.222,0,0,0,346.57,340.138Z" transform="translate(-345.771 -339.679)"/></g></g><g transform="translate(126.28 8.448)"><g transform="translate(0)"><path class="b" d="M527.589,236.275c-2.492,1.44-2.506,3.773-.029,5.214a9.914,9.914,0,0,0,9,0c2.493-1.44,2.508-3.774.03-5.212A9.921,9.921,0,0,0,527.589,236.275Z" transform="translate(-525.711 -235.196)"/></g><g transform="translate(3.658 2.119)"><path class="c" d="M529.069,237.138a1.172,1.172,0,0,0-.011,2.218,4.22,4.22,0,0,0,3.826,0,1.172,1.172,0,0,0,.013-2.218A4.223,4.223,0,0,0,529.069,237.138Z" transform="translate(-528.271 -236.679)"/></g></g><g transform="translate(169.86 147.044)"><g transform="translate(0)"><path class="b" d="M497.089,333.275c-2.492,1.44-2.506,3.775-.029,5.214a9.914,9.914,0,0,0,9,0c2.493-1.439,2.508-3.773.03-5.214A9.925,9.925,0,0,0,497.089,333.275Z" transform="translate(-495.211 -332.196)"/></g><g transform="translate(3.658 2.119)"><path class="c" d="M498.57,334.138a1.172,1.172,0,0,0-.011,2.218,4.22,4.22,0,0,0,3.826,0,1.172,1.172,0,0,0,.013-2.218A4.222,4.222,0,0,0,498.57,334.138Z" transform="translate(-497.771 -333.679)"/></g></g></g><path class="d" d="M616.079,371.3,577.2,345.383a23.692,23.692,0,0,0-24.727-.954l-70.641,39.59a23.7,23.7,0,0,1-25.6-1.563l-38.668-22.817" transform="translate(-297.433 -139.839)"/><g transform="translate(207.187 135.441)"><path class="e" d="M459.152,404.86,396.837,364.3l124.687-49.875,16.387,36.337Z" transform="translate(-396.837 -286.848)"/><g transform="translate(47.113)"><g transform="translate(22.474 72.442)"><g class="f"><path class="g" d="M403.83,360.725l26.719,15.528a7.709,7.709,0,0,0,6.991,0l26.892-15.526a2.48,2.48,0,0,0,1.462-2.042l.047.85a2.48,2.48,0,0,1-1.462,2.042L437.589,377.1a7.71,7.71,0,0,1-6.991,0l-26.72-15.528a2.458,2.458,0,0,1-1.436-2.01l-.047-.85A2.45,2.45,0,0,0,403.83,360.725Z" transform="translate(-402.394 -340.311)"/><path class="g" d="M403.83,360.725l26.719,15.528a7.709,7.709,0,0,0,6.991,0l26.892-15.526a2.48,2.48,0,0,0,1.462-2.042l.047.85a2.48,2.48,0,0,1-1.462,2.042L437.589,377.1a7.71,7.71,0,0,1-6.991,0l-26.72-15.528a2.458,2.458,0,0,1-1.436-2.01l-.047-.85A2.45,2.45,0,0,0,403.83,360.725Z" transform="translate(-402.394 -340.311)"/><path class="h" d="M403.886,362.191c-1.936,1.119-1.946,2.932-.023,4.049l26.719,15.528a7.709,7.709,0,0,0,6.991,0l26.892-15.526c1.939-1.12,1.949-2.933.026-4.051l-26.72-15.528a7.709,7.709,0,0,0-6.993,0Z" transform="translate(-402.427 -345.826)"/></g></g><path class="i" d="M404.827,341.506l78.99-45.868a3.23,3.23,0,0,1,2.646-.376l2.212.719a3.225,3.225,0,0,0-2.646.376l-78.991,45.867a6.932,6.932,0,0,0-2.915,7.011L416.964,411a3.57,3.57,0,0,0,2.237,2.853l-2.212-.719a3.564,3.564,0,0,1-2.236-2.853l-12.842-61.768A6.93,6.93,0,0,1,404.827,341.506Z" transform="translate(-401.788 -295.125)"/><g transform="translate(2.211 0.718)"><path class="j" d="M394.184,342.008a6.932,6.932,0,0,0-2.915,7.011l12.841,61.768c.544,2.618,2.73,3.726,4.888,2.475l78.99-45.868a6.925,6.925,0,0,0,2.916-7.006L478.063,298.62c-.544-2.618-2.735-3.729-4.888-2.479Z" transform="translate(-391.146 -295.628)"/></g><g transform="translate(3.784 2.578)"><path class="k" d="M395.189,341.85a6.711,6.711,0,0,0-2.823,6.79L404.8,408.463c.527,2.536,2.645,3.609,4.734,2.4l76.5-44.422a6.71,6.71,0,0,0,2.823-6.785l-12.437-59.822c-.527-2.536-2.649-3.614-4.734-2.4Z" transform="translate(-392.246 -296.93)"/></g></g></g><path class="l" d="M521.946,292.495l61.288,38.784a12.63,12.63,0,0,0,13.357.093l33.1-20.3" transform="translate(-460.186 -160.812)"/><path class="m" d="M595.629,347.708a14.788,14.788,0,0,0,7.726-2.165L647.278,320l-2.155-3.706-43.966,25.572a10.583,10.583,0,0,1-11.133-.053L516.763,296.42l-2.258,3.645,73.244,45.378A14.742,14.742,0,0,0,595.629,347.708Z" transform="translate(-467.144 -159.129)"/><g transform="translate(0 5.362)"><g transform="translate(0 83.001)"><path class="n" d="M578.467,299.453c-2.8,1.616-2.812,4.237-.033,5.851l38.61,22.438a11.139,11.139,0,0,0,10.1,0L666,305.307c2.8-1.617,2.816-4.238.036-5.854l-38.608-22.437a11.131,11.131,0,0,0-10.106,0Z" transform="translate(-576.359 -256.333)"/><g class="f"><path class="o" d="M578.385,283.708,617,306.144a11.131,11.131,0,0,0,10.1,0l38.858-22.435a3.579,3.579,0,0,0,2.112-2.949l.069,5.592a3.581,3.581,0,0,1-2.112,2.949l-38.858,22.435a11.135,11.135,0,0,1-10.1,0L578.454,289.3a3.548,3.548,0,0,1-2.075-2.9l-.069-5.592A3.545,3.545,0,0,0,578.385,283.708Z" transform="translate(-576.311 -254.208)"/><path class="p" d="M578.385,283.708,617,306.144a11.131,11.131,0,0,0,10.1,0l38.858-22.435a3.579,3.579,0,0,0,2.112-2.949l.069,5.592a3.581,3.581,0,0,1-2.112,2.949l-38.858,22.435a11.135,11.135,0,0,1-10.1,0L578.454,289.3a3.548,3.548,0,0,1-2.075-2.9l-.069-5.592A3.545,3.545,0,0,0,578.385,283.708Z" transform="translate(-576.311 -254.208)"/><path class="q" d="M578.467,285.826c-2.8,1.615-2.812,4.235-.033,5.851l38.61,22.437a11.131,11.131,0,0,0,10.1,0L666,291.678c2.8-1.617,2.816-4.238.036-5.852l-38.608-22.438a11.14,11.14,0,0,0-10.106,0Z" transform="translate(-576.359 -262.177)"/><path class="r" d="M587.492,284.305c-1.956,1.13-1.966,2.962-.023,4.092l27,15.689a7.792,7.792,0,0,0,7.064,0L648.7,288.4c1.959-1.132,1.969-2.963.026-4.092l-27-15.688a7.781,7.781,0,0,0-7.066,0Z" transform="translate(-572.219 -259.778)"/></g></g><path class="s" d="M586.065,313.314V204.086h63.957V313.005c.373.942-.064,1.969-1.336,2.7L621.516,331.4a7.789,7.789,0,0,1-7.063,0l-27-15.689A2.282,2.282,0,0,1,586.065,313.314Z" transform="translate(-572.207 -204.086)"/><path class="t" d="M640.636,217.087V326.006a1.773,1.773,0,0,1,.11.614,7.524,7.524,0,0,1-4.364-.8l-27-15.689a2.282,2.282,0,0,1-1.392-2.393V217.087Z" transform="translate(-594.137 -198.511)"/></g><g transform="translate(55.39 82.482)"><g class="f" transform="translate(0)"><g transform="translate(0 2.127)"><path class="u" d="M599.244,259.549l0,3.816,3.662,2.128,0-3.816Z" transform="translate(-599.244 -259.549)"/></g><g transform="translate(3.662 2.128)"><path class="v" d="M596.666,261.677l0,3.816,3.685-2.127,0-3.816Z" transform="translate(-596.666 -259.549)"/></g><g transform="translate(0)"><path class="w" d="M596.669,260.187l3.662,2.128,3.685-2.127-3.662-2.128Z" transform="translate(-596.669 -258.06)"/></g></g></g><g transform="translate(27.314 62.144)"><g class="f" transform="translate(0)"><g transform="translate(0 2.127)"><path class="x" d="M618.895,245.315l0,3.816,3.662,2.128,0-3.816Z" transform="translate(-618.895 -245.315)"/></g><g transform="translate(3.662 2.128)"><path class="v" d="M616.316,247.443l0,3.816,3.685-2.127,0-3.816Z" transform="translate(-616.316 -245.316)"/></g><g transform="translate(0)"><path class="w" d="M616.319,245.954l3.662,2.128,3.685-2.127L620,243.826Z" transform="translate(-616.319 -243.826)"/></g></g></g><g transform="translate(57.036 38.26)"><g class="f" transform="translate(0)"><g transform="translate(0 2.127)"><path class="u" d="M598.093,228.6l0,3.816,3.662,2.128,0-3.816Z" transform="translate(-598.093 -228.599)"/></g><g transform="translate(3.662 2.128)"><path class="v" d="M595.514,230.727l0,3.816,3.685-2.127,0-3.816Z" transform="translate(-595.514 -228.6)"/></g><g transform="translate(0)"><path class="w" d="M595.517,229.238l3.662,2.128,3.685-2.127L599.2,227.11Z" transform="translate(-595.517 -227.11)"/></g></g></g><g transform="translate(23.599 103.543)"><g class="f" transform="translate(0)"><g transform="translate(0 2.127)"><path class="u" d="M621.5,274.289l0,3.816,3.662,2.128,0-3.816Z" transform="translate(-621.495 -274.289)"/></g><g transform="translate(3.662 2.128)"><path class="y" d="M618.916,276.417l0,3.816,3.685-2.127,0-3.816Z" transform="translate(-618.916 -274.29)"/></g><g transform="translate(0)"><path class="w" d="M618.919,274.928l3.662,2.128,3.685-2.127L622.6,272.8Z" transform="translate(-618.919 -272.8)"/></g></g></g><path class="z" d="M368.59,271.337c-2.8,1.616-2.813,4.236-.033,5.851l38.61,22.438a11.139,11.139,0,0,0,10.1,0l38.858-22.435c2.8-1.617,2.816-4.238.036-5.854L417.553,248.9a11.136,11.136,0,0,0-10.1,0Z" transform="translate(-66.604 -180.025)"/><g transform="translate(294.665 175.006)"><g class="f" transform="translate(0)"><path class="j" d="M426.545,324.608a1.235,1.235,0,0,0-.269.181l-12.018,10.672a1.674,1.674,0,0,0-.534,1.406l2.228,16.476a8.477,8.477,0,0,0,3.059,5.451,15.238,15.238,0,0,0,5.2,2.753,28.965,28.965,0,0,0,7.1,1.333.835.835,0,0,0,.4-.1,1.182,1.182,0,0,0,.364-.274,68.579,68.579,0,0,0,5.881-7.691,40.463,40.463,0,0,0,3.856-7.19,15.379,15.379,0,0,0,1.3-7.586l-2.228-16.474a.754.754,0,0,0-.824-.742l-13.232,1.7A.892.892,0,0,0,426.545,324.608Z" transform="translate(-413.712 -322.816)"/></g></g><g class="aa" transform="translate(267.47 193.534)"><path class="j" d="M445.6,341.18a.8.8,0,0,0-.339.816l1.493,7.188a.369.369,0,0,0,.569.287l9.192-5.337a.805.805,0,0,0,.339-.816l-1.493-7.187a.37.37,0,0,0-.569-.289Z" transform="translate(-445.248 -335.783)"/></g><g class="aa" transform="translate(271.185 208.396)"><path class="j" d="M443,351.581a.807.807,0,0,0-.339.816l1.495,7.188a.368.368,0,0,0,.567.287l9.192-5.337a.806.806,0,0,0,.34-.816l-1.495-7.187a.37.37,0,0,0-.569-.289Z" transform="translate(-442.647 -346.184)"/></g><g class="aa" transform="translate(274.9 223.257)"><path class="j" d="M440.4,361.982a.81.81,0,0,0-.339.816l1.495,7.188a.369.369,0,0,0,.569.287l9.19-5.337a.806.806,0,0,0,.34-.816l-1.495-7.187a.37.37,0,0,0-.569-.289Z" transform="translate(-440.047 -356.585)"/></g><g transform="translate(168.608 217.718)"><path class="z" d="M509.583,359.908a.647.647,0,0,0-.007,1.224l8.074,4.692a2.334,2.334,0,0,0,2.113,0l8.126-4.692a.647.647,0,0,0,.009-1.224l-8.074-4.692a2.329,2.329,0,0,0-2.113,0Z" transform="translate(-509.143 -351.742)"/><g transform="translate(5.423)"><g class="f"><g transform="translate(0 4.422)"><path class="u" d="M513.443,355.8l.009,7.933,7.612,4.423-.009-7.933Z" transform="translate(-513.443 -355.803)"/></g><g transform="translate(7.612 4.423)"><path class="v" d="M508.083,360.226l.009,7.933,7.659-4.422-.009-7.933Z" transform="translate(-508.083 -355.805)"/></g><g transform="translate(0)"><path class="w" d="M508.089,357.131l7.611,4.423,7.659-4.422-7.612-4.423Z" transform="translate(-508.089 -352.709)"/></g></g></g></g><g transform="translate(173.882 259.609)"><path class="ab" d="M498.025,393.588a1.038,1.038,0,0,0-.01,1.965l12.964,7.534a3.735,3.735,0,0,0,3.392,0l13.048-7.533a1.039,1.039,0,0,0,.013-1.966l-12.965-7.534a3.735,3.735,0,0,0-3.392,0Z" transform="translate(-497.317 -380.475)"/><g transform="translate(8.708)"><g class="f"><g transform="translate(0 7.1)"><path class="u" d="M504.222,387l.015,12.737,12.222,7.1-.015-12.737Z" transform="translate(-504.222 -386.996)"/></g><g transform="translate(12.222 7.102)"><path class="v" d="M495.615,394.1l.015,12.737,12.3-7.1L507.913,387Z" transform="translate(-495.615 -386.998)"/></g><g transform="translate(0)"><path class="w" d="M495.626,389.127l12.222,7.1,12.3-7.1-12.222-7.1Z" transform="translate(-495.626 -382.028)"/></g></g></g></g><g transform="translate(370.13 154.925)"><path class="ab" d="M371.166,314.508a.515.515,0,0,0-.006.976l6.444,3.745a1.856,1.856,0,0,0,1.686,0l6.485-3.744a.516.516,0,0,0,.006-.977l-6.444-3.745a1.856,1.856,0,0,0-1.686,0Z" transform="translate(-370.813 -307.99)"/><g transform="translate(4.328)"><g class="f"><g transform="translate(0 3.529)"><path class="u" d="M374.245,311.231l.008,6.331,6.075,3.53-.007-6.331Z" transform="translate(-374.245 -311.231)"/></g><g transform="translate(6.075 3.53)"><path class="v" d="M369.967,314.761l.007,6.331,6.113-3.529-.007-6.331Z" transform="translate(-369.967 -311.232)"/></g><g transform="translate(0)"><path class="w" d="M369.973,312.29l6.075,3.53,6.113-3.529-6.075-3.53Z" transform="translate(-369.973 -308.761)"/></g></g></g></g><g transform="translate(6.295 182.789)"><path class="z" d="M625.8,334.01a.516.516,0,0,0-.006.976l6.444,3.745a1.856,1.856,0,0,0,1.686,0l6.487-3.745a.515.515,0,0,0,.006-.976l-6.444-3.745a1.859,1.859,0,0,0-1.687,0Z" transform="translate(-625.452 -327.491)"/><g transform="translate(4.328)"><g class="f"><g transform="translate(0 3.529)"><path class="u" d="M628.885,330.733l.008,6.331,6.075,3.53-.008-6.331Z" transform="translate(-628.885 -330.733)"/></g><g transform="translate(6.075 3.53)"><path class="v" d="M624.607,334.263l.008,6.331,6.112-3.529-.007-6.331Z" transform="translate(-624.607 -330.734)"/></g><g transform="translate(0)"><path class="w" d="M624.612,331.792l6.075,3.53,6.113-3.529-6.075-3.53Z" transform="translate(-624.612 -328.263)"/></g></g></g></g><g transform="translate(259.275 9.781)"><path class="ac" d="M397.007,251.278c-2.8,1.616-2.813,4.236-.033,5.851l38.61,22.438a11.139,11.139,0,0,0,10.1,0l38.857-22.435c2.8-1.617,2.818-4.238.037-5.854l-38.61-22.437a11.128,11.128,0,0,0-10.1,0Z" transform="translate(-394.899 -198.408)"/><g transform="translate(1.857 15.422)"><g class="f"><path class="o" d="M395.626,239.5l38.61,22.438a11.139,11.139,0,0,0,10.1,0L483.2,239.505a3.576,3.576,0,0,0,2.11-2.949l.07,5.592a3.577,3.577,0,0,1-2.112,2.948l-38.858,22.435a11.13,11.13,0,0,1-10.1,0l-38.61-22.437a3.545,3.545,0,0,1-2.075-2.906l-.07-5.591A3.548,3.548,0,0,0,395.626,239.5Z" transform="translate(-393.55 -210.003)"/><path class="p" d="M395.626,239.5l38.61,22.438a11.139,11.139,0,0,0,10.1,0L483.2,239.505a3.576,3.576,0,0,0,2.11-2.949l.07,5.592a3.577,3.577,0,0,1-2.112,2.948l-38.858,22.435a11.13,11.13,0,0,1-10.1,0l-38.61-22.437a3.545,3.545,0,0,1-2.075-2.906l-.07-5.591A3.548,3.548,0,0,0,395.626,239.5Z" transform="translate(-393.55 -210.003)"/><path class="h" d="M395.707,241.62c-2.8,1.616-2.813,4.236-.033,5.851l38.61,22.438a11.139,11.139,0,0,0,10.1,0l38.858-22.435c2.8-1.617,2.816-4.238.036-5.854l-38.61-22.437a11.128,11.128,0,0,0-10.1,0Z" transform="translate(-393.598 -217.972)"/></g></g><g transform="translate(50.348 27.662)"><g class="f"><g transform="translate(0 5.305)"><path class="ad" d="M417.48,230.251l.011,9.517,9.132,5.307-.011-9.517Z" transform="translate(-417.48 -230.251)"/></g><g transform="translate(9.132 5.307)"><path class="ae" d="M411.049,235.557l.011,9.517,9.189-5.3-.011-9.517Z" transform="translate(-411.049 -230.252)"/></g><g transform="translate(0)"><path class="af" d="M411.057,231.843l9.132,5.307,9.189-5.3-9.132-5.307Z" transform="translate(-411.057 -226.538)"/></g></g></g><g transform="translate(30.71 31.533)"><g class="f"><g transform="translate(0 4.383)"><path class="ad" d="M432.336,232.315l.009,7.864,7.545,4.385-.009-7.864Z" transform="translate(-432.336 -232.315)"/></g><g transform="translate(7.545 4.385)"><path class="ae" d="M427.022,236.7l.009,7.864,7.592-4.383-.009-7.864Z" transform="translate(-427.022 -232.317)"/></g><g transform="translate(0)"><path class="af" d="M427.028,233.631l7.545,4.385,7.592-4.383-7.546-4.385Z" transform="translate(-427.028 -229.248)"/></g></g></g><g transform="translate(40.795 14.122)"><g transform="translate(0)"><g class="f"><g transform="translate(0 3.769)"><path class="ad" d="M426.019,219.7l.008,6.762,6.488,3.77-.008-6.762Z" transform="translate(-426.019 -219.7)"/></g><g transform="translate(6.488 3.77)"><path class="ae" d="M421.45,223.47l.008,6.762,6.528-3.769-.008-6.762Z" transform="translate(-421.45 -219.701)"/></g><g transform="translate(0)"><path class="af" d="M421.456,220.831l6.488,3.77,6.528-3.769-6.488-3.77Z" transform="translate(-421.456 -217.062)"/></g></g></g></g><g transform="translate(34.426 3.132)"><g class="f"><g transform="translate(0 2.848)"><path class="ad" d="M431.588,211.363l.006,5.108,4.9,2.849-.006-5.108Z" transform="translate(-431.588 -211.363)"/></g><g transform="translate(4.902 2.849)"><path class="ae" d="M428.136,214.212l.006,5.108,4.932-2.848-.006-5.108Z" transform="translate(-428.136 -211.364)"/></g><g transform="translate(0)"><path class="af" d="M428.141,212.218l4.9,2.848,4.932-2.847-4.9-2.849Z" transform="translate(-428.141 -209.37)"/></g></g></g><g transform="translate(50.879)"><g transform="translate(0)"><g class="f"><g transform="translate(0 2.54)"><path class="ag" d="M420.443,208.956l.005,4.557,4.373,2.541-.005-4.557Z" transform="translate(-420.443 -208.956)"/></g><g transform="translate(4.373 2.541)"><path class="ae" d="M417.364,211.5l.005,4.557,4.4-2.54-.005-4.557Z" transform="translate(-417.364 -208.957)"/></g><g transform="translate(0)"><path class="af" d="M417.367,209.718l4.373,2.541,4.4-2.54-4.373-2.541Z" transform="translate(-417.367 -207.178)"/></g></g></g></g></g><path class="d" d="M490.239,273.309l-39.361,22.06a23.694,23.694,0,0,1-25.6-1.563l-35.473-26.013" transform="translate(-131.934 -171.405)"/><g transform="translate(315.27 71.379)"><g transform="translate(0)"><g class="f"><path class="o" d="M357.736,271.82l38.61,22.437a11.13,11.13,0,0,0,10.1,0l38.858-22.434a3.581,3.581,0,0,0,2.112-2.949l.069,5.591a3.581,3.581,0,0,1-2.112,2.949l-38.858,22.435a11.135,11.135,0,0,1-10.1,0L357.8,277.411a3.546,3.546,0,0,1-2.075-2.9l-.069-5.592A3.548,3.548,0,0,0,357.736,271.82Z" transform="translate(-355.661 -242.32)"/><path class="p" d="M357.736,271.82l38.61,22.437a11.13,11.13,0,0,0,10.1,0l38.858-22.434a3.581,3.581,0,0,0,2.112-2.949l.069,5.591a3.581,3.581,0,0,1-2.112,2.949l-38.858,22.435a11.135,11.135,0,0,1-10.1,0L357.8,277.411a3.546,3.546,0,0,1-2.075-2.9l-.069-5.592A3.548,3.548,0,0,0,357.736,271.82Z" transform="translate(-355.661 -242.32)"/><path class="q" d="M357.817,273.939c-2.8,1.615-2.812,4.235-.033,5.851l38.61,22.437a11.13,11.13,0,0,0,10.1,0l38.858-22.434c2.8-1.619,2.816-4.239.037-5.854L406.781,251.5a11.14,11.14,0,0,0-10.106,0Z" transform="translate(-355.709 -250.29)"/></g></g><g transform="translate(20.752 3.535)"><ellipse class="ah" cx="25.616" cy="14.286" rx="25.616" ry="14.286" transform="translate(0 7.984)"/><g transform="translate(2.673)"><g transform="translate(9.789)"><g transform="translate(0 3.205)"><path class="ai" d="M387.361,255.007l.008,2.933,13.307,7.733-.008-2.933Z" transform="translate(-387.361 -255.007)"/></g><g transform="translate(13.308 5.973)"><path class="aj" d="M375.567,261.909l.008,2.933,16.852-4.965-.008-2.933Z" transform="translate(-375.567 -256.944)"/></g><g transform="translate(0)"><path class="ak" d="M375.573,255.969l13.308,7.733,16.852-4.965c-4.7-5.381-16.061-7.521-25.369-4.778A20.913,20.913,0,0,0,375.573,255.969Z" transform="translate(-375.573 -252.764)"/></g></g><path class="al" d="M371.534,264.74c.21,3.822,3.126,6.715,6.193,8.626a28.671,28.671,0,0,0,11.161,3.759A39.11,39.11,0,0,0,400.472,277a28.36,28.36,0,0,0,10.976-4c2.982-1.943,5.814-4.935,5.8-8.72q0,1.194.007,2.385a13.272,13.272,0,0,1-.144,2.662c-.627,3.131-3.082,5.544-5.662,7.224a28.266,28.266,0,0,1-10.736,3.955,38.966,38.966,0,0,1-11.5.2,29.579,29.579,0,0,1-11.142-3.6c-3.031-1.782-5.953-4.535-6.461-8.184a18.367,18.367,0,0,1-.084-2.46l-.006-2.132C371.517,264.473,371.527,264.607,371.534,264.74Z" transform="translate(-371.516 -247.823)"/><g transform="translate(0 7.1)"><path class="am" d="M378.262,257.733c-8.944,5.164-8.99,13.537-.1,18.7s23.34,5.164,32.284,0c7.156-4.131,8.836-10.148,4.285-15.354l-20.374,6Z" transform="translate(-371.524 -257.733)"/></g></g></g></g><g transform="translate(9.745 119.519)"><path class="e" d="M597.337,393.716l-62.315-40.557,124.687-49.875L676.1,339.621Z" transform="translate(-535.022 -275.704)"/><g transform="translate(47.113)"><g transform="translate(22.474 72.442)"><g class="f"><path class="an" d="M542.015,349.581l26.719,15.528a7.71,7.71,0,0,0,6.991,0l26.892-15.526a2.481,2.481,0,0,0,1.462-2.042l.047.85a2.48,2.48,0,0,1-1.462,2.042L575.772,365.96a7.707,7.707,0,0,1-6.99,0l-26.72-15.528a2.456,2.456,0,0,1-1.436-2.01l-.047-.85A2.451,2.451,0,0,0,542.015,349.581Z" transform="translate(-540.579 -329.167)"/><path class="an" d="M542.015,349.581l26.719,15.528a7.71,7.71,0,0,0,6.991,0l26.892-15.526a2.481,2.481,0,0,0,1.462-2.042l.047.85a2.48,2.48,0,0,1-1.462,2.042L575.772,365.96a7.707,7.707,0,0,1-6.99,0l-26.72-15.528a2.456,2.456,0,0,1-1.436-2.01l-.047-.85A2.451,2.451,0,0,0,542.015,349.581Z" transform="translate(-540.579 -329.167)"/><path class="h" d="M542.071,351.047c-1.936,1.119-1.946,2.932-.023,4.049l26.719,15.528a7.71,7.71,0,0,0,6.991,0L602.65,355.1c1.939-1.12,1.949-2.933.026-4.051l-26.72-15.528a7.708,7.708,0,0,0-6.993,0Z" transform="translate(-540.612 -334.682)"/></g></g><path class="ao" d="M543.012,330.362,622,284.494a3.23,3.23,0,0,1,2.646-.376l2.212.717a3.231,3.231,0,0,0-2.646.377l-78.991,45.867a6.932,6.932,0,0,0-2.915,7.011l12.841,61.768a3.565,3.565,0,0,0,2.237,2.853l-2.212-.719a3.564,3.564,0,0,1-2.236-2.853L540.1,337.372A6.93,6.93,0,0,1,543.012,330.362Z" transform="translate(-539.973 -283.981)"/><g transform="translate(2.211 0.718)"><path class="j" d="M532.369,330.864a6.932,6.932,0,0,0-2.915,7.011L542.3,399.643c.544,2.618,2.73,3.726,4.888,2.475l78.99-45.867a6.928,6.928,0,0,0,2.916-7.007l-12.841-61.768c-.544-2.618-2.735-3.729-4.888-2.479Z" transform="translate(-529.331 -284.484)"/></g><g transform="translate(3.784 2.578)"><path class="ap" d="M533.374,330.706a6.711,6.711,0,0,0-2.823,6.79l12.437,59.823c.527,2.536,2.645,3.609,4.734,2.4l76.5-44.422a6.708,6.708,0,0,0,2.825-6.785l-12.436-59.822c-.527-2.536-2.649-3.613-4.734-2.4Z" transform="translate(-530.431 -285.786)"/></g><g class="aa" transform="translate(18.537 17.276)"><path class="j" d="M540.135,329.141a4.939,4.939,0,0,0-2.077,5l9.154,44.039c.389,1.866,1.946,2.658,3.485,1.765l56.318-32.7a4.939,4.939,0,0,0,2.079-4.994l-9.156-44.039c-.389-1.867-1.95-2.659-3.485-1.769Z" transform="translate(-537.97 -296.072)"/></g><g class="aa" transform="translate(13.003 34.823)"><path class="j" d="M570.179,323.268a2.23,2.23,0,0,0-.939,2.255l4.131,19.865a1.021,1.021,0,0,0,1.572.8l25.4-14.751a2.226,2.226,0,0,0,.937-2.252l-4.129-19.865a1.022,1.022,0,0,0-1.572-.8Z" transform="translate(-569.201 -308.353)"/></g><g class="aa" transform="translate(18.576 60.697)"><path class="j" d="M566.278,341.378a2.227,2.227,0,0,0-.937,2.255L569.47,363.5a1.021,1.021,0,0,0,1.572.8l25.4-14.751a2.228,2.228,0,0,0,.939-2.253l-4.131-19.863a1.022,1.022,0,0,0-1.572-.8Z" transform="translate(-565.3 -326.462)"/></g><g class="aa" transform="translate(28.108 71.972)"><path class="j" d="M572.369,340.417a.9.9,0,0,0-.381.916l1.679,8.076a.415.415,0,0,0,.639.324l10.328-6a.905.905,0,0,0,.382-.916l-1.679-8.076a.415.415,0,0,0-.639-.324Z" transform="translate(-571.972 -334.353)"/></g><g class="aq" transform="translate(72.691 24.734)"><path class="j" d="M541.166,307.356a.907.907,0,0,0-.381.917l1.679,8.076a.415.415,0,0,0,.639.324l10.328-6a.907.907,0,0,0,.381-.917l-1.679-8.076a.416.416,0,0,0-.639-.324Z" transform="translate(-540.769 -301.292)"/></g><g class="aq" transform="translate(69.109 45.832)"><path class="j" d="M543.673,322.122a.905.905,0,0,0-.381.917l1.679,8.076a.415.415,0,0,0,.639.323l10.328-6a.9.9,0,0,0,.382-.916l-1.679-8.076a.415.415,0,0,0-.639-.324Z" transform="translate(-543.276 -316.058)"/></g></g></g><path class="ar" d="M463.394,274.674c-28.169,16.264-28.318,42.642-.322,58.912s73.524,16.264,101.7,0,28.336-42.64.34-58.91S491.575,258.405,463.394,274.674Z" transform="translate(-302.517 -173.686)"/><g transform="translate(152.275 80.69)"><g transform="translate(0.001 41.448)"><path class="as" d="M433.326,286.225l.016,5.822c.03,10.593,6.993,21.172,20.9,29.255,28,16.27,73.524,16.264,101.7,0,14.182-8.189,21.267-18.935,21.237-29.665l-.017-5.824c.03,10.73-7.054,21.478-21.237,29.665-28.171,16.264-73.7,16.27-101.7,0C440.317,307.4,433.356,296.817,433.326,286.225Z" transform="translate(-433.326 -285.814)"/></g><g transform="translate(0)"><path class="w" d="M454.562,269.008c-28.171,16.264-28.319,42.64-.323,58.91s73.524,16.264,101.7,0,28.338-42.64.34-58.91S482.742,252.738,454.562,269.008Z" transform="translate(-433.338 -256.806)"/></g><g transform="translate(20.961 12.142)"><path class="at" d="M463.046,273.949c-19.961,11.523-20.065,30.212-.229,41.74s52.095,11.525,72.054,0,20.078-30.214.242-41.742S483.011,262.421,463.046,273.949Z" transform="translate(-448.008 -265.303)"/></g></g><g transform="translate(173.236 92.831)"><path class="at" d="M463.046,273.949c-19.961,11.523-20.065,30.212-.229,41.74s52.095,11.525,72.054,0,20.078-30.214.242-41.742S483.011,262.421,463.046,273.949Z" transform="translate(-448.008 -265.303)"/></g><path class="au" d="M448,200.333H549.922V323.45h-.049c-.369,7.294-5.367,14.533-15.01,20.1-19.959,11.523-52.218,11.526-72.054,0-9.58-5.567-14.5-12.805-14.783-20.1H448Z" transform="translate(-274.763 -200.333)"/><g transform="translate(204.589 53.333)"><g class="f"><path class="av" d="M490.844,240.388C496.372,237.2,501.382,236.9,505,239l3.706,2.155c-3.618-2.1-8.626-1.807-14.155,1.385-10.991,6.344-19.878,21.738-19.842,34.367.019,6.271,2.233,10.683,5.805,12.758l-3.708-2.153c-3.572-2.076-5.787-6.488-5.8-12.759C470.966,262.126,479.854,246.733,490.844,240.388Z" transform="translate(-471.002 -237.66)"/><path class="aw" d="M486.779,241.9c10.99-6.345,19.928-1.243,19.964,11.386s-8.843,28.008-19.833,34.353-19.936,1.257-19.972-11.372S475.789,248.24,486.779,241.9Z" transform="translate(-463.231 -237.013)"/></g><g transform="translate(18.06 14.61)"><g class="f" transform="translate(0)"><path class="ax" d="M482.477,248.658c3.115-1.8,5.65-.353,5.661,3.226a12.368,12.368,0,0,1-3.108,7.6l1.906,11.363-3.779,2.182-1.219.7-3.779,2.182,1.835-13.524c-1.856,0-3.136-1.453-3.143-3.992A12.4,12.4,0,0,1,482.477,248.658Z" transform="translate(-476.85 -247.885)"/></g></g><path class="al" d="M484.1,248.652a5.246,5.246,0,0,1,2.345-.752,4.515,4.515,0,0,1,.994,3.085,12.368,12.368,0,0,1-3.108,7.6l1.906,11.363-3.779,2.182-1.219.7-1.129.652,1.506-11.1c-1.856,0-3.136-1.453-3.143-3.992A12.4,12.4,0,0,1,484.1,248.652Z" transform="translate(-460.415 -233.268)"/></g><g transform="translate(103.7 234.568)"><g transform="translate(0)"><g class="f"><path class="o" d="M534.023,376.264l21.094,12.259a6.079,6.079,0,0,0,5.518,0l21.231-12.258a1.954,1.954,0,0,0,1.153-1.61l.037,3.055a1.957,1.957,0,0,1-1.153,1.612l-21.23,12.256a6.081,6.081,0,0,1-5.519,0L534.061,379.32a1.943,1.943,0,0,1-1.134-1.587l-.037-3.055A1.936,1.936,0,0,0,534.023,376.264Z" transform="translate(-532.889 -360.148)"/><path class="p" d="M534.023,376.264l21.094,12.259a6.079,6.079,0,0,0,5.518,0l21.231-12.258a1.954,1.954,0,0,0,1.153-1.61l.037,3.055a1.957,1.957,0,0,1-1.153,1.612l-21.23,12.256a6.081,6.081,0,0,1-5.519,0L534.061,379.32a1.943,1.943,0,0,1-1.134-1.587l-.037-3.055A1.936,1.936,0,0,0,534.023,376.264Z" transform="translate(-532.889 -360.148)"/><path class="q" d="M534.067,377.422c-1.529.883-1.536,2.315-.017,3.2l21.094,12.259a6.079,6.079,0,0,0,5.518,0l21.231-12.258c1.53-.883,1.537-2.315.02-3.2l-21.1-12.258a6.08,6.08,0,0,0-5.521,0Z" transform="translate(-532.915 -364.502)"/></g></g><g transform="translate(8.573 4.598)"><g class="f"><path class="o" d="M540.279,375.239l13.484,7.837a3.9,3.9,0,0,0,3.529,0l13.571-7.836a1.254,1.254,0,0,0,.737-1.03l.024,1.953a1.254,1.254,0,0,1-.739,1.03l-13.571,7.834a3.887,3.887,0,0,1-3.528,0L540.3,377.192a1.24,1.24,0,0,1-.724-1.014l-.024-1.953A1.24,1.24,0,0,0,540.279,375.239Z" transform="translate(-539.555 -364.937)"/><path class="ay" d="M540.279,375.239l13.484,7.837a3.9,3.9,0,0,0,3.529,0l13.571-7.836a1.254,1.254,0,0,0,.737-1.03l.024,1.953a1.254,1.254,0,0,1-.739,1.03l-13.571,7.834a3.887,3.887,0,0,1-3.528,0L540.3,377.192a1.24,1.24,0,0,1-.724-1.014l-.024-1.953A1.24,1.24,0,0,0,540.279,375.239Z" transform="translate(-539.555 -364.937)"/><path class="az" d="M540.308,375.979a1.08,1.08,0,0,0-.011,2.043l13.484,7.837a3.9,3.9,0,0,0,3.529,0l13.571-7.836a1.081,1.081,0,0,0,.013-2.045l-13.485-7.836a3.89,3.89,0,0,0-3.529,0Z" transform="translate(-539.572 -367.72)"/></g></g></g><g transform="translate(198.717 213.591)"><g transform="translate(0)"><g class="f"><path class="ba" d="M476.555,358.457l15.486,9a4.462,4.462,0,0,0,4.052,0l15.587-9a1.436,1.436,0,0,0,.847-1.183l.027,2.243a1.435,1.435,0,0,1-.847,1.183l-15.586,9a4.462,4.462,0,0,1-4.052,0l-15.487-9a1.422,1.422,0,0,1-.833-1.165l-.027-2.243A1.426,1.426,0,0,0,476.555,358.457Z" transform="translate(-475.722 -346.624)"/><path class="bb" d="M476.555,358.457l15.486,9a4.462,4.462,0,0,0,4.052,0l15.587-9a1.436,1.436,0,0,0,.847-1.183l.027,2.243a1.435,1.435,0,0,1-.847,1.183l-15.586,9a4.462,4.462,0,0,1-4.052,0l-15.487-9a1.422,1.422,0,0,1-.833-1.165l-.027-2.243A1.426,1.426,0,0,0,476.555,358.457Z" transform="translate(-475.722 -346.624)"/><path class="h" d="M476.588,359.306a1.24,1.24,0,0,0-.013,2.347l15.486,9a4.462,4.462,0,0,0,4.052,0l15.587-9a1.241,1.241,0,0,0,.014-2.347l-15.487-9a4.469,4.469,0,0,0-4.054,0Z" transform="translate(-475.742 -349.82)"/></g></g><g transform="translate(6.294 3.375)"><g class="f"><path class="bc" d="M481.15,357.7l9.9,5.752a2.854,2.854,0,0,0,2.59,0L503.6,357.7a.917.917,0,0,0,.542-.756l.017,1.433a.917.917,0,0,1-.542.757l-9.963,5.752a2.85,2.85,0,0,1-2.591,0l-9.9-5.752a.911.911,0,0,1-.533-.744l-.017-1.435A.912.912,0,0,0,481.15,357.7Z" transform="translate(-480.617 -350.139)"/><path class="ay" d="M481.15,357.7l9.9,5.752a2.854,2.854,0,0,0,2.59,0L503.6,357.7a.917.917,0,0,0,.542-.756l.017,1.433a.917.917,0,0,1-.542.757l-9.963,5.752a2.85,2.85,0,0,1-2.591,0l-9.9-5.752a.911.911,0,0,1-.533-.744l-.017-1.435A.912.912,0,0,0,481.15,357.7Z" transform="translate(-480.617 -350.139)"/><path class="az" d="M481.169,358.247a.793.793,0,0,0-.007,1.5l9.9,5.752a2.854,2.854,0,0,0,2.59,0l9.963-5.752a.793.793,0,0,0,.01-1.5l-9.9-5.754a2.85,2.85,0,0,0-2.591,0Z" transform="translate(-480.629 -352.183)"/></g></g></g><g transform="translate(187.196 106.717)"><g transform="translate(7.144 15.003)"><g class="f"><g transform="translate(0 2.127)"><path class="u" d="M502,287.011l0,3.816,3.662,2.128,0-3.816Z" transform="translate(-501.997 -287.011)"/></g><g transform="translate(3.662 2.128)"><path class="v" d="M499.418,289.138l0,3.816,3.685-2.127,0-3.816Z" transform="translate(-499.418 -287.011)"/></g><g transform="translate(0)"><path class="w" d="M499.421,287.649l3.662,2.128,3.685-2.127-3.662-2.128Z" transform="translate(-499.421 -285.522)"/></g></g></g><g transform="translate(9.645 4.644)"><g class="f" transform="translate(0)"><g transform="translate(0 2.127)"><path class="u" d="M500.247,279.761l0,3.816,3.662,2.128,0-3.816Z" transform="translate(-500.247 -279.761)"/></g><g transform="translate(3.662 2.128)"><path class="v" d="M497.668,281.888l0,3.816,3.685-2.127,0-3.816Z" transform="translate(-497.668 -279.761)"/></g><g transform="translate(0)"><path class="w" d="M497.671,280.4l3.662,2.128,3.685-2.127-3.662-2.128Z" transform="translate(-497.671 -278.272)"/></g></g></g><g transform="translate(0)"><g class="f"><g transform="translate(0 2.127)"><path class="u" d="M507,276.511l0,3.816,3.662,2.128,0-3.816Z" transform="translate(-506.997 -276.511)"/></g><g transform="translate(3.662 2.128)"><path class="v" d="M504.418,278.638l0,3.816,3.685-2.127,0-3.816Z" transform="translate(-504.418 -276.511)"/></g><g transform="translate(0)"><path class="w" d="M504.421,277.149l3.662,2.128,3.685-2.127-3.662-2.128Z" transform="translate(-504.421 -275.022)"/></g></g></g></g><g transform="translate(245.064 106.717)"><g transform="translate(1.786 12.145)"><g class="f"><g transform="translate(0 2.127)"><path class="u" d="M465.247,285.011l0,3.816,3.662,2.128,0-3.816Z" transform="translate(-465.247 -285.011)"/></g><g transform="translate(3.662 2.128)"><path class="v" d="M462.668,287.138l0,3.816,3.685-2.127,0-3.816Z" transform="translate(-462.668 -285.011)"/></g><g transform="translate(0)"><path class="w" d="M462.671,285.649l3.662,2.128,3.685-2.127-3.662-2.128Z" transform="translate(-462.671 -283.522)"/></g></g></g><g transform="translate(9.645 4.644)"><g class="f" transform="translate(0)"><g transform="translate(0 2.127)"><path class="u" d="M459.747,279.761l0,3.816,3.662,2.128,0-3.816Z" transform="translate(-459.747 -279.761)"/></g><g transform="translate(3.662 2.128)"><path class="v" d="M457.168,281.888l0,3.816,3.685-2.127,0-3.816Z" transform="translate(-457.168 -279.761)"/></g><g transform="translate(0)"><path class="w" d="M457.171,280.4l3.662,2.128,3.685-2.127-3.662-2.128Z" transform="translate(-457.171 -278.272)"/></g></g></g><g transform="translate(0)"><g class="f"><g transform="translate(0 2.127)"><path class="u" d="M466.5,276.511l0,3.816,3.662,2.128,0-3.816Z" transform="translate(-466.497 -276.511)"/></g><g transform="translate(3.662 2.128)"><path class="v" d="M463.918,278.638l0,3.816,3.685-2.127,0-3.816Z" transform="translate(-463.918 -276.511)"/></g><g transform="translate(0)"><path class="w" d="M463.921,277.149l3.662,2.128,3.685-2.127-3.662-2.128Z" transform="translate(-463.921 -275.022)"/></g></g></g></g><g transform="translate(193.626 46.349)"><g transform="translate(0 17.86)"><g class="f"><g transform="translate(0 2.127)"><path class="u" d="M502.5,246.761l0,3.816,3.662,2.128,0-3.816Z" transform="translate(-502.497 -246.761)"/></g><g transform="translate(3.662 2.128)"><path class="v" d="M499.918,248.888l0,3.816,3.685-2.127,0-3.816Z" transform="translate(-499.918 -246.761)"/></g><g transform="translate(0)"><path class="w" d="M499.921,247.4l3.662,2.128,3.685-2.127-3.662-2.128Z" transform="translate(-499.921 -245.272)"/></g></g></g><g transform="translate(7.859 10.359)"><g class="f"><g transform="translate(0 2.127)"><path class="u" d="M497,241.511l0,3.816,3.662,2.128,0-3.816Z" transform="translate(-496.997 -241.511)"/></g><g transform="translate(3.662 2.128)"><path class="v" d="M494.418,243.638l0,3.816,3.685-2.127,0-3.816Z" transform="translate(-494.418 -241.511)"/></g><g transform="translate(0)"><path class="w" d="M494.421,242.149l3.662,2.128,3.685-2.127-3.662-2.128Z" transform="translate(-494.421 -240.022)"/></g></g></g><g transform="translate(15.003)"><g class="f" transform="translate(0)"><g transform="translate(0 2.127)"><path class="u" d="M492,234.261l0,3.816,3.662,2.128,0-3.816Z" transform="translate(-491.997 -234.261)"/></g><g transform="translate(3.662 2.128)"><path class="v" d="M489.418,236.388l0,3.816,3.685-2.127,0-3.816Z" transform="translate(-489.418 -234.261)"/></g><g transform="translate(0)"><path class="w" d="M489.421,234.9l3.662,2.128,3.685-2.127-3.662-2.128Z" transform="translate(-489.421 -232.772)"/></g></g></g></g></g></svg>