<svg xmlns="http://www.w3.org/2000/svg" xmlns:xlink="http://www.w3.org/1999/xlink" width="272" height="115" viewBox="0 0 272 115"><defs><style>.a,.d{fill:#f3cd20;}.a,.b{stroke:#707070;}.b{fill:#fff;}.c{clip-path:url(#a);}.e{clip-path:url(#b);}.f{fill:#186994;}</style><clipPath id="a"><rect class="a" width="151" height="78" transform="translate(2.73)"/></clipPath><clipPath id="b"><rect class="b" width="230" height="115" transform="translate(4.208)"/></clipPath></defs><g transform="translate(-744 -5360)"><g class="c" transform="translate(741.27 5379)"><path class="d" d="M-388.523-312.91a75.41,75.41,0,0,1,75.41-75.41,75.41,75.41,0,0,1,75.41,75.41,75.41,75.41,0,0,1-75.41,75.41A75.41,75.41,0,0,1-388.523-312.91Zm23.775,0a51.636,51.636,0,0,0,51.636,51.636,51.636,51.636,0,0,0,51.635-51.636,51.635,51.635,0,0,0-51.635-51.635A51.636,51.636,0,0,0-364.748-312.91Z" transform="translate(391.085 312.915)"/></g><g class="e" transform="translate(781.792 5360)"><path class="f" d="M-388.523-273.283A115.037,115.037,0,0,1-273.486-388.32,115.037,115.037,0,0,1-158.448-273.283,115.037,115.037,0,0,1-273.486-158.246,115.037,115.037,0,0,1-388.523-273.283Zm36.268,0a78.769,78.769,0,0,0,78.769,78.769,78.769,78.769,0,0,0,78.769-78.769,78.769,78.769,0,0,0-78.769-78.769A78.769,78.769,0,0,0-352.255-273.283Z" transform="translate(392.494 273.29)"/></g></g></svg>