<svg xmlns="http://www.w3.org/2000/svg" width="61.188" height="73.051" viewBox="0 0 61.188 73.051"><defs><style>.a{fill:#a4afc1;}.b{fill:#f3cd20;}.c{fill:#efefef;}.d{fill:#d8b61e;}.e{fill:#d5dbe1;}.f{fill:#052130;}.g{fill:#186994;}</style></defs><g transform="translate(-890.494 -1608.909)"><path class="a" d="M30.97,13.467a4.216,4.216,0,1,1,2.982-1.232A4.216,4.216,0,0,1,30.97,13.467Zm0-5.624a1.405,1.405,0,1,0,.993.411,1.413,1.413,0,0,0-.993-.411Z" transform="translate(916.496 1603.874)"/><g transform="translate(890.494 1614.438)"><path class="b" d="M36.978,6.75a4.214,4.214,0,0,0-4.22,4.22,2.822,2.822,0,0,1-2.813,2.813H17.284A2.822,2.822,0,0,1,14.47,10.97a4.214,4.214,0,0,0-4.22-4.22Z" transform="translate(-1.106 -4.64)"/><path class="c" d="M48.545,12.377V64.425a5.643,5.643,0,0,1-5.627,5.627H13.377A5.643,5.643,0,0,1,7.75,64.425V12.377A5.643,5.643,0,0,1,13.377,6.75h1.407A4.214,4.214,0,0,1,19,10.97a2.822,2.822,0,0,0,2.813,2.813h12.66a2.822,2.822,0,0,0,2.813-2.813,4.214,4.214,0,0,1,4.22-4.22h1.407A5.643,5.643,0,0,1,48.545,12.377Z" transform="translate(-5.64 -4.64)"/><path class="d" d="M20.8,10.97a4.214,4.214,0,0,0-4.22-4.22H10.25a4.214,4.214,0,0,1,4.22,4.22,2.822,2.822,0,0,0,2.813,2.813h6.33A2.822,2.822,0,0,1,20.8,10.97Z" transform="translate(-1.106 -4.64)"/><path class="e" d="M26.394,10.97a4.206,4.206,0,0,1,1.924-3.536A5.542,5.542,0,0,0,25.69,6.75H24.284a4.214,4.214,0,0,0-4.22,4.22,2.822,2.822,0,0,1-2.813,2.813h6.33A2.822,2.822,0,0,0,26.394,10.97Z" transform="translate(11.588 -4.64)"/><path class="e" d="M14.08,64.425V12.377a5.624,5.624,0,0,1,3-4.943,4.211,4.211,0,0,0-2.3-.684H13.377A5.643,5.643,0,0,0,7.75,12.377V64.425a5.643,5.643,0,0,0,5.627,5.627h6.33A5.643,5.643,0,0,1,14.08,64.425Z" transform="translate(-5.64 -4.64)"/><path class="f" d="M32.211,17.254H19.55a4.929,4.929,0,0,1-4.923-4.923,2.113,2.113,0,0,0-2.11-2.11H11.11a2.11,2.11,0,1,1,0-4.22h1.407a6.338,6.338,0,0,1,6.33,6.33.7.7,0,0,0,.7.7h12.66a.7.7,0,0,0,.7-.7A6.338,6.338,0,0,1,39.244,6h1.407a2.11,2.11,0,1,1,0,4.22H39.244a2.113,2.113,0,0,0-2.11,2.11A4.929,4.929,0,0,1,32.211,17.254Z" transform="translate(-3.373 -6)"/><path class="f" d="M44.278,73.522H14.737A7.743,7.743,0,0,1,7,65.785V13.737A7.743,7.743,0,0,1,14.737,6H44.278a7.743,7.743,0,0,1,7.737,7.737V19.42a2.11,2.11,0,0,1-4.22,0V13.737a3.522,3.522,0,0,0-3.517-3.517H14.737a3.522,3.522,0,0,0-3.517,3.517V65.785A3.522,3.522,0,0,0,14.737,69.3H44.278a3.522,3.522,0,0,0,3.517-3.517,2.123,2.123,0,0,1,2.11-2.124,2.1,2.1,0,0,1,2.11,2.1A7.749,7.749,0,0,1,44.278,73.522Z" transform="translate(-7 -6)"/><g transform="translate(30.596 40.322)"><path class="b" d="M27.956,30.3H22.095a2.345,2.345,0,0,1-2.345-2.345V22.095a2.345,2.345,0,0,1,2.345-2.345h5.861A2.345,2.345,0,0,1,30.3,22.095v5.861A2.345,2.345,0,0,1,27.956,30.3Z" transform="translate(-19.75 -19.75)"/></g><g transform="translate(30.596 40.322)"><path class="d" d="M25.025,27.956V22.095A2.345,2.345,0,0,1,27.37,19.75H22.095a2.345,2.345,0,0,0-2.345,2.345v5.861A2.345,2.345,0,0,0,22.095,30.3H27.37A2.345,2.345,0,0,1,25.025,27.956Z" transform="translate(-19.75 -19.75)"/></g><g transform="translate(10.081 19.807)"><path class="g" d="M20.964,25.068H15.1a4.108,4.108,0,0,1-4.1-4.1V15.1A4.108,4.108,0,0,1,15.1,11h5.861a4.108,4.108,0,0,1,4.1,4.1v5.861A4.108,4.108,0,0,1,20.964,25.068ZM15.1,14.517a.586.586,0,0,0-.586.586v5.861a.586.586,0,0,0,.586.586h5.861a.586.586,0,0,0,.586-.586V15.1a.586.586,0,0,0-.586-.586Z" transform="translate(-11 -11)"/></g><g transform="translate(28.837 19.807)"><path class="g" d="M28.964,25.068H23.1a4.108,4.108,0,0,1-4.1-4.1V15.1A4.108,4.108,0,0,1,23.1,11h5.861a4.108,4.108,0,0,1,4.1,4.1v5.861A4.108,4.108,0,0,1,28.964,25.068ZM23.1,14.517a.586.586,0,0,0-.586.586v5.861a.586.586,0,0,0,.586.586h5.861a.586.586,0,0,0,.586-.586V15.1a.586.586,0,0,0-.586-.586Z" transform="translate(-19 -11)"/></g><g transform="translate(10.081 38.563)"><path class="g" d="M20.964,33.068H15.1a4.108,4.108,0,0,1-4.1-4.1V23.1A4.108,4.108,0,0,1,15.1,19h5.861a4.108,4.108,0,0,1,4.1,4.1v5.861A4.108,4.108,0,0,1,20.964,33.068ZM15.1,22.517a.586.586,0,0,0-.586.586v5.861a.586.586,0,0,0,.586.586h5.861a.586.586,0,0,0,.586-.586V23.1a.586.586,0,0,0-.586-.586Z" transform="translate(-11 -19)"/></g><g transform="translate(28.837 38.563)"><path class="g" d="M28.964,33.068H23.1a4.108,4.108,0,0,1-4.1-4.1V23.1A4.108,4.108,0,0,1,23.1,19h5.861a4.108,4.108,0,0,1,4.1,4.1v5.861A4.108,4.108,0,0,1,28.964,33.068ZM23.1,22.517a.586.586,0,0,0-.586.586v5.861a.586.586,0,0,0,.586.586h5.861a.586.586,0,0,0,.586-.586V23.1a.586.586,0,0,0-.586-.586Z" transform="translate(-19 -19)"/></g></g></g></svg>