<svg xmlns="http://www.w3.org/2000/svg" width="90.186" height="82.436" viewBox="0 0 90.186 82.436"><defs><style>.a{fill:#a4afc1;}.b{fill:#f3cd20;}.c{fill:#f3f3f1;}.d{fill:#d8b61e;}.e{fill:#d5dbe1;}.f{fill:#052130;}.g{fill:#186994;}</style></defs><g transform="translate(-2 -1.756)"><path class="a" d="M19.227,9.455a4.227,4.227,0,1,1,4.227-4.227A4.233,4.233,0,0,1,19.227,9.455Zm0-5.637a1.409,1.409,0,1,0,1.409,1.409A1.41,1.41,0,0,0,19.227,3.818Z" transform="translate(23.638 0.756)"/><g transform="translate(15.387 17.962)"><path class="b" d="M6.75,6.75H13.8V13.8H6.75Z" transform="translate(-6.75 -6.75)"/><path class="b" d="M29.773,24.8A3.523,3.523,0,1,1,33.3,21.273,3.524,3.524,0,0,1,29.773,24.8Z" transform="translate(28.707 13.252)"/><path class="b" d="M37.706,42.887,35.214,24.2a2.818,2.818,0,0,0-2.793-2.446H19.037A2.818,2.818,0,0,0,16.244,24.2L13.75,42.887Z" transform="translate(5.978 20.525)"/><path class="b" d="M10.773,24.8A3.523,3.523,0,1,1,14.3,21.273,3.524,3.524,0,0,1,10.773,24.8Z" transform="translate(-5.841 13.252)"/><path class="b" d="M26.75,6.75H33.8V13.8H26.75Z" transform="translate(29.617 -6.75)"/></g><path class="c" d="M30.68,46.3l7.026-10.287L25.728,8.25,13.75,36.011,20.776,46.3Z" transform="translate(21.365 13.939)"/><path class="b" d="M6.75,6.75h6.341V13.8H6.75Z" transform="translate(8.637 11.212)"/><path class="b" d="M32.591,21.273a3.447,3.447,0,0,1,.352-1.482,3.523,3.523,0,1,0,0,2.965A3.447,3.447,0,0,1,32.591,21.273Z" transform="translate(44.094 31.213)"/><path class="d" d="M25.376,21.75H19.034A2.818,2.818,0,0,0,16.241,24.2L13.75,42.887h6.341L22.583,24.2A2.82,2.82,0,0,1,25.376,21.75Z" transform="translate(21.365 38.487)"/><path class="b" d="M13.591,21.273a3.447,3.447,0,0,1,.352-1.482,3.523,3.523,0,1,0,0,2.965A3.447,3.447,0,0,1,13.591,21.273Z" transform="translate(9.546 31.213)"/><path class="b" d="M26.75,6.75h6.341V13.8H26.75Z" transform="translate(45.004 11.212)"/><path class="e" d="M28.9,15.6,25.728,8.25,13.75,36.011,20.776,46.3h6.341L20.091,36.011Z" transform="translate(21.365 13.939)"/><path class="f" d="M65.526,36.138H61.3a24.66,24.66,0,0,0-49.321,0H7.75a28.888,28.888,0,0,1,57.776,0Z" transform="translate(10.455 12.121)"/><path class="f" d="M15.16,17.273H8.114A2.115,2.115,0,0,1,6,15.16V8.114A2.115,2.115,0,0,1,8.114,6H15.16a2.115,2.115,0,0,1,2.114,2.114V15.16A2.115,2.115,0,0,1,15.16,17.273Zm-4.932-4.227h2.818V10.227H10.227Z" transform="translate(7.273 9.848)"/><path class="f" d="M31.137,28.273a5.637,5.637,0,1,1,5.637-5.637A5.642,5.642,0,0,1,31.137,28.273Zm0-7.046a1.409,1.409,0,1,0,1.409,1.409A1.41,1.41,0,0,0,31.137,21.227Z" transform="translate(42.731 29.85)"/><path class="f" d="M9.5,7.25H57.412v4.227H9.5Z" transform="translate(13.637 12.121)"/><path class="g" d="M33.787,48.778,30.3,46.394l6.369-9.326L27.091,14.874,17.514,37.068l6.369,9.326-3.489,2.384L13.368,38.491a2.112,2.112,0,0,1-.194-2.029L25.152,8.7a2.2,2.2,0,0,1,3.881,0L41.011,36.462a2.112,2.112,0,0,1-.194,2.029Z" transform="translate(20.002 12.651)"/><path class="f" d="M37.421,46.627,34.65,25.839a.705.705,0,0,0-.7-.612H20.567a.707.707,0,0,0-.7.612L17.1,46.624l-4.191-.558,2.77-20.788A4.953,4.953,0,0,1,20.567,21H33.951a4.946,4.946,0,0,1,4.887,4.278l2.773,20.788Z" transform="translate(19.832 37.123)"/><path class="g" d="M17.25,8.75h4.227V32H17.25Z" transform="translate(27.729 14.848)"/><path class="f" d="M12.137,28.273a5.637,5.637,0,1,1,5.637-5.637A5.642,5.642,0,0,1,12.137,28.273Zm0-7.046a1.409,1.409,0,1,0,1.409,1.409A1.41,1.41,0,0,0,12.137,21.227Z" transform="translate(8.182 29.85)"/><path class="f" d="M35.16,17.273H28.114A2.115,2.115,0,0,1,26,15.16V8.114A2.115,2.115,0,0,1,28.114,6H35.16a2.115,2.115,0,0,1,2.114,2.114V15.16A2.115,2.115,0,0,1,35.16,17.273Zm-4.932-4.227h2.818V10.227H30.227Z" transform="translate(43.64 9.848)"/><path class="f" d="M2,28.75H92.186v4.227H2Z" transform="translate(0 51.215)"/></g></svg>