<svg xmlns="http://www.w3.org/2000/svg" width="55.059" height="55.059" viewBox="0 0 55.059 55.059"><defs><style>.a{fill:none;}.b{fill:#052130;}</style></defs><path class="a" d="M0,0H55.059V55.059H0Z"/><path class="b" d="M17.6,20.623a24.217,24.217,0,0,0,9.066,9.066L28.7,26.85a2.294,2.294,0,0,1,2.969-.679A26.2,26.2,0,0,0,42.181,29.3a2.294,2.294,0,0,1,2.113,2.287V41.823a2.294,2.294,0,0,1-2.061,2.283A35.58,35.58,0,0,1,3.188,5.06,2.294,2.294,0,0,1,5.471,3H15.707a2.294,2.294,0,0,1,2.287,2.113,26.2,26.2,0,0,0,3.129,10.514,2.294,2.294,0,0,1-.679,2.969Zm-5.786-1.507L16.177,16a30.764,30.764,0,0,1-2.517-8.415H7.611c-.014.381-.021.764-.021,1.147A30.967,30.967,0,0,0,38.559,39.706c.383,0,.766-.007,1.147-.023v-6.05a30.764,30.764,0,0,1-8.415-2.517l-3.113,4.359a28.543,28.543,0,0,1-3.643-1.721l-.133-.076A28.8,28.8,0,0,1,13.615,22.892l-.076-.133a28.543,28.543,0,0,1-1.721-3.643Z" transform="translate(3.882 3.882)"/></svg>