<svg xmlns="http://www.w3.org/2000/svg" width="75.613" height="77.635" viewBox="0 0 75.613 77.635"><defs><style>.a{fill:#a4afc1;}.b{fill:#f3cd20;}.c{fill:#efefef;}.d{fill:#d8b61e;}.e{fill:#d5dbe1;}.f{fill:#186994;}.g{fill:#052130;}</style></defs><g transform="translate(-12.728 -5.711)"><g transform="translate(70.928 5.711)"><path class="a" d="M0,0H2.813V5.627H0Z" transform="translate(11.435 13.425) rotate(-45)"/><path class="a" d="M0,0H2.813V5.627H0Z" transform="translate(0 1.989) rotate(-45)"/><path class="a" d="M0,0H5.627V2.813H0Z" transform="translate(11.445 4.488) rotate(-45)"/></g><path class="b" d="M70.052,14.377V18.6H6.75v-4.22A5.643,5.643,0,0,1,12.377,8.75H64.425A5.643,5.643,0,0,1,70.052,14.377Z" transform="translate(8.088 14.81)"/><path class="c" d="M70.052,12.25v42.2a5.643,5.643,0,0,1-5.627,5.627H12.377A5.643,5.643,0,0,1,6.75,54.451V12.25Z" transform="translate(8.088 21.157)"/><circle class="c" cx="16.177" cy="16.177" r="16.177" transform="translate(45.785 17.933)"/><path class="d" d="M18.707,8.75h-6.33A5.643,5.643,0,0,0,6.75,14.377V18.6h6.33v-4.22A5.643,5.643,0,0,1,18.707,8.75Z" transform="translate(8.088 14.81)"/><path class="e" d="M13.08,54.451V12.25H6.75v42.2a5.643,5.643,0,0,0,5.627,5.627h6.33A5.643,5.643,0,0,1,13.08,54.451Z" transform="translate(8.088 21.157)"/><path class="e" d="M24.08,22.927A16.178,16.178,0,0,1,37.092,7.065a16.177,16.177,0,1,0,0,31.724A16.178,16.178,0,0,1,24.08,22.927Z" transform="translate(28.035 11.183)"/><path class="f" d="M35.287,42.575A18.287,18.287,0,1,1,53.575,24.287,18.308,18.308,0,0,1,35.287,42.575Zm0-32.354A14.067,14.067,0,1,0,49.354,24.287,14.083,14.083,0,0,0,35.287,10.22Z" transform="translate(26.675 9.823)"/><path class="f" d="M21,7.02h4.22V37.855H21Z" transform="translate(33.929 11.673)"/><path class="f" d="M24.5,7.02h4.22V37.855H24.5Z" transform="translate(40.276 11.673)"/><path class="f" d="M18.02,10H48.858v4.22H18.02Z" transform="translate(28.525 17.077)"/><path class="f" d="M18.02,13.5H48.858v4.22H18.02Z" transform="translate(28.525 23.424)"/><path class="g" d="M65.785,69.9H13.737A7.743,7.743,0,0,1,6,62.158V15.737A7.743,7.743,0,0,1,13.737,8H33.009a2.11,2.11,0,1,1,0,4.22H13.737a3.522,3.522,0,0,0-3.517,3.517V62.158a3.522,3.522,0,0,0,3.517,3.517H65.785A3.522,3.522,0,0,0,69.3,62.158V39.145a2.11,2.11,0,0,1,4.22,0V62.158A7.743,7.743,0,0,1,65.785,69.9Z" transform="translate(6.728 13.45)"/><path class="g" d="M30.646,15.72H8.11a2.11,2.11,0,1,1,0-4.22H30.646a2.11,2.11,0,0,1,0,4.22Z" transform="translate(6.728 19.797)"/><path class="f" d="M21.11,34.568a2.112,2.112,0,0,1-1.6-3.486l3.041-3.548-3.041-3.551a2.111,2.111,0,1,1,3.2-2.749l4.22,4.923a2.111,2.111,0,0,1,0,2.749l-4.22,4.923a2.112,2.112,0,0,1-1.6.737Z" transform="translate(30.303 36.117)"/><path class="f" d="M17.33,34.568a2.1,2.1,0,0,1-1.6-.737l-4.22-4.923a2.111,2.111,0,0,1,0-2.749l4.22-4.923a2.111,2.111,0,1,1,3.2,2.749l-3.044,3.551,3.041,3.551a2.108,2.108,0,0,1-1.6,3.483Z" transform="translate(15.795 36.117)"/><path class="f" d="M17.113,41.509a1.983,1.983,0,0,1-.478-.056,2.109,2.109,0,0,1-1.581-2.529l4.22-18.287a2.109,2.109,0,1,1,4.11.948l-4.22,18.287a2.106,2.106,0,0,1-2.051,1.637Z" transform="translate(23.048 33.396)"/></g></svg>